<svg width="680" height="280" viewBox="0 0 680 280" fill="none" xmlns="http://www.w3.org/2000/svg">
  <rect width="680" height="280" fill="#0d1510"/>
  <g transform="translate(120, 140)">
    <rect x="-7" y="-90" width="14" height="36" rx="3" fill="#c8c4b0" opacity="0.55"/>
    <rect x="-44" y="-56" width="88" height="18" rx="5" fill="#0f6e56"/>
    <rect x="-44" y="-40" width="22" height="72" rx="4" fill="#1d9e75"/>
    <rect x="-23" y="-30" width="5" height="52" rx="2" fill="#0f6e56"/>
    <rect x="-44" y="28" width="22" height="14" rx="3" fill="#0c5a44"/>
    <rect x="22" y="-40" width="22" height="72" rx="4" fill="#1d9e75"/>
    <rect x="18" y="-30" width="5" height="52" rx="2" fill="#0f6e56"/>
    <rect x="22" y="28" width="22" height="14" rx="3" fill="#0c5a44"/>
    <rect x="-18" y="-12" width="36" height="36" rx="3" fill="#083d2a" stroke="#1d9e75" stroke-width="1.4"/>
    <polygon points="-18,-12 18,-12 26,-22 -10,-22" fill="#0a4d33" stroke="#1d9e75" stroke-width="1.4" stroke-linejoin="round"/>
    <polygon points="18,-12 18,24 26,14 26,-22" fill="#072e1f" stroke="#1d9e75" stroke-width="1.4" stroke-linejoin="round"/>
  </g>
  <text x="196" y="158" font-family="'JetBrains Mono', ui-monospace, monospace" font-size="72" font-weight="500" letter-spacing="-1" fill="#f5f2e8">Grasp<tspan fill="#1d9e75">2</tspan>sim</text>
  <line x1="196" y1="172" x2="636" y2="172" stroke="#1d9e75" stroke-width="0.8" opacity="0.25"/>
  <text x="197" y="196" font-family="'JetBrains Mono', ui-monospace, monospace" font-size="13" font-weight="400" letter-spacing="0.02em" fill="#4a6a55">Grasp pose simulation · GraspNet · Parallel · Suction</text>
</svg>